<svg xmlns="http://www.w3.org/2000/svg" width="1600" height="900" viewBox="0 0 1600 900" role="img" aria-label="Adult Toy Materials: Silicone, Glass, ABS, and Metal Explained Product detail and care scene"><defs><linearGradient id="g" x1="0" y1="0" x2="1" y2="1"><stop offset="0" stop-color="#f9f1eb"/><stop offset="1" stop-color="#d8b9aa"/></linearGradient><filter id="s"><feDropShadow dx="0" dy="18" stdDeviation="20" flood-color="#2a1912" flood-opacity=".13"/></filter></defs><rect width="1600" height="900" fill="url(#g)"/><circle cx="1210" cy="220" r="210" fill="#fff" opacity=".45"/><rect x="140" y="145" width="560" height="610" rx="44" fill="#fffdf9" filter="url(#s)"/><text x="200" y="260" font-family="Georgia,serif" font-size="66" font-weight="700" fill="#2a1912">Product detail and care scene</text><text x="200" y="335" font-family="Arial,sans-serif" font-size="30" fill="#2a1912" opacity=".62">Material Swatches</text><circle cx="245" cy="455" r="23" fill="#b8796a" opacity=".65"/><rect x="295" y="438" width="300" height="26" rx="13" fill="#2a1912" opacity=".14"/><circle cx="245" cy="535" r="23" fill="#b8796a" opacity=".45"/><rect x="295" y="518" width="340" height="26" rx="13" fill="#2a1912" opacity=".12"/><circle cx="245" cy="615" r="23" fill="#b8796a" opacity=".32"/><rect x="295" y="598" width="260" height="26" rx="13" fill="#2a1912" opacity=".1"/><g filter="url(#s)"><rect x="965" y="260" width="170" height="420" rx="50" fill="#fffdf9" stroke="#d8b9aa" stroke-width="5"/><rect x="995" y="325" width="110" height="145" rx="22" fill="#b8796a" opacity=".2"/><rect x="1210" y="510" width="230" height="82" rx="24" fill="#fff" stroke="#d8b9aa" stroke-width="5"/><circle cx="1258" cy="551" r="22" fill="#b8796a" opacity=".45"/><path d="M1155 655 C1220 590 1325 612 1362 680" fill="none" stroke="#b8796a" stroke-width="16" stroke-linecap="round" opacity=".46"/></g></svg>