<svg xmlns="http://www.w3.org/2000/svg" width="1600" height="900" viewBox="0 0 1600 900" role="img" aria-label="Adult Toy Materials: Silicone, Glass, ABS, and Metal Explained">
<defs><linearGradient id="g" x1="0" y1="0" x2="1" y2="1"><stop offset="0" stop-color="#f9f1eb"/><stop offset=".58" stop-color="#d8b9aa"/><stop offset="1" stop-color="#d5a99a"/></linearGradient><radialGradient id="glow" cx="74%" cy="28%" r="58%"><stop offset="0" stop-color="#fff" stop-opacity=".78"/><stop offset="1" stop-color="#fff" stop-opacity="0"/></radialGradient><filter id="shadow"><feDropShadow dx="0" dy="22" stdDeviation="22" flood-color="#2a1912" flood-opacity=".17"/></filter></defs>
<rect width="1600" height="900" fill="url(#g)"/><rect width="1600" height="900" fill="url(#glow)"/><circle cx="1317" cy="188" r="165" fill="#fff" opacity=".38"/><circle cx="1183" cy="720" r="235" fill="#b8796a" opacity=".14"/>
<rect x="82" y="132" width="690" height="604" rx="46" fill="#fffdf9" opacity=".83" filter="url(#shadow)"/>
<text x="126" y="214" font-family="Arial,sans-serif" font-size="25" font-weight="800" letter-spacing="6" fill="#b8796a">SHOPLOVANEST GUIDE</text>
<text x="126" y="300" font-family="Georgia,serif" font-size="60" font-weight="700" fill="#2a1912">Adult Toy Materials:</text><text x="126" y="372" font-family="Georgia,serif" font-size="60" font-weight="700" fill="#2a1912">Silicone, Glass, ABS, and</text><text x="126" y="444" font-family="Georgia,serif" font-size="60" font-weight="700" fill="#2a1912">Metal Explained</text>
<text x="126" y="590" font-family="Arial,sans-serif" font-size="28" font-weight="700" fill="#2a1912" opacity=".68">Material Swatches</text>
<text x="126" y="640" font-family="Arial,sans-serif" font-size="25" fill="#2a1912" opacity=".58">Discreet · Body-safe · 18+ wellness</text>
<g filter="url(#shadow)"><rect x="930" y="240" width="355" height="420" rx="35" fill="#fffdf9" stroke="#d8b9aa" stroke-width="5"/><circle cx="990" cy="330" r="18" fill="#b8796a" opacity=".65"/><rect x="1030" y="315" width="170" height="18" rx="9" fill="#2a1912" opacity=".16"/><circle cx="990" cy="410" r="18" fill="#b8796a" opacity=".45"/><rect x="1030" y="395" width="205" height="18" rx="9" fill="#2a1912" opacity=".13"/><circle cx="990" cy="490" r="18" fill="#b8796a" opacity=".32"/><rect x="1030" y="475" width="145" height="18" rx="9" fill="#2a1912" opacity=".11"/><path d="M1235 620 C1305 550 1385 582 1372 660" stroke="#b8796a" stroke-width="14" stroke-linecap="round" fill="none" opacity=".5"/></g>
</svg>