<svg xmlns="http://www.w3.org/2000/svg" width="1600" height="900" viewBox="0 0 1600 900" role="img" aria-label="G-Spot Vibrator Guide: Shape, Size, and Care">
<defs><linearGradient id="g" x1="0" y1="0" x2="1" y2="1"><stop offset="0" stop-color="#fff6ee"/><stop offset=".58" stop-color="#edcfc4"/><stop offset="1" stop-color="#d5a99a"/></linearGradient><radialGradient id="glow" cx="74%" cy="28%" r="58%"><stop offset="0" stop-color="#fff" stop-opacity=".78"/><stop offset="1" stop-color="#fff" stop-opacity="0"/></radialGradient><filter id="shadow"><feDropShadow dx="0" dy="22" stdDeviation="22" flood-color="#2b1812" flood-opacity=".17"/></filter></defs>
<rect width="1600" height="900" fill="url(#g)"/><rect width="1600" height="900" fill="url(#glow)"/><circle cx="1310" cy="190" r="165" fill="#fff" opacity=".38"/><circle cx="1190" cy="720" r="235" fill="#9a5a4c" opacity=".14"/>
<rect x="82" y="132" width="690" height="604" rx="46" fill="#fffdf9" opacity=".83" filter="url(#shadow)"/>
<text x="126" y="214" font-family="Arial,sans-serif" font-size="25" font-weight="800" letter-spacing="6" fill="#9a5a4c">SHOPLOVANEST GUIDE</text>
<text x="126" y="300" font-family="Georgia,serif" font-size="60" font-weight="700" fill="#2b1812">G-Spot Vibrator Guide:</text><text x="126" y="372" font-family="Georgia,serif" font-size="60" font-weight="700" fill="#2b1812">Shape, Size, and Care</text>
<text x="126" y="590" font-family="Arial,sans-serif" font-size="28" font-weight="700" fill="#2b1812" opacity=".68">Silk Fabric Folds</text>
<text x="126" y="640" font-family="Arial,sans-serif" font-size="25" fill="#2b1812" opacity=".58">Discreet · Body-safe · 18+ wellness</text>
<g filter="url(#shadow)"><path d="M890 610 C1010 360 1180 300 1395 390 C1310 520 1220 642 1030 706 C970 700 925 668 890 610Z" fill="#fffdf9" stroke="#edcfc4" stroke-width="5"/><path d="M970 610 C1080 520 1210 485 1340 500" fill="none" stroke="#9a5a4c" stroke-width="10" opacity=".35"/><circle cx="1085" cy="455" r="48" fill="#9a5a4c" opacity=".18"/></g>
</svg>