<svg xmlns="http://www.w3.org/2000/svg" width="1600" height="900" viewBox="0 0 1600 900" role="img" aria-label="Lubricant Ingredients: What Beginners Should Read">
<defs><linearGradient id="g" x1="0" y1="0" x2="1" y2="1"><stop offset="0" stop-color="#f9f1eb"/><stop offset=".58" stop-color="#d8b9aa"/><stop offset="1" stop-color="#d5a99a"/></linearGradient><radialGradient id="glow" cx="74%" cy="28%" r="58%"><stop offset="0" stop-color="#fff" stop-opacity=".78"/><stop offset="1" stop-color="#fff" stop-opacity="0"/></radialGradient><filter id="shadow"><feDropShadow dx="0" dy="22" stdDeviation="22" flood-color="#2a1912" flood-opacity=".17"/></filter></defs>
<rect width="1600" height="900" fill="url(#g)"/><rect width="1600" height="900" fill="url(#glow)"/><circle cx="1337" cy="181" r="165" fill="#fff" opacity=".38"/><circle cx="1163" cy="720" r="235" fill="#b8796a" opacity=".14"/>
<rect x="82" y="132" width="690" height="604" rx="46" fill="#fffdf9" opacity=".83" filter="url(#shadow)"/>
<text x="126" y="214" font-family="Arial,sans-serif" font-size="25" font-weight="800" letter-spacing="6" fill="#b8796a">SHOPLOVANEST GUIDE</text>
<text x="126" y="300" font-family="Georgia,serif" font-size="60" font-weight="700" fill="#2a1912">Lubricant Ingredients: What</text><text x="126" y="372" font-family="Georgia,serif" font-size="60" font-weight="700" fill="#2a1912">Beginners Should Read</text>
<text x="126" y="590" font-family="Arial,sans-serif" font-size="28" font-weight="700" fill="#2a1912" opacity=".68">Lubricant Bottle</text>
<text x="126" y="640" font-family="Arial,sans-serif" font-size="25" fill="#2a1912" opacity=".58">Discreet · Body-safe · 18+ wellness</text>
<g filter="url(#shadow)"><rect x="935" y="238" width="150" height="410" rx="42" fill="#fffdf9" stroke="#d8b9aa" stroke-width="5"/><rect x="964" y="285" width="92" height="164" rx="22" fill="#b8796a" opacity=".18"/><rect x="974" y="204" width="72" height="56" rx="18" fill="#2a1912" opacity=".9"/><path d="M1195 420 C1248 464 1196 534 1153 492 C1127 466 1166 430 1195 420Z" fill="#b8796a" opacity=".5"/><rect x="1130" y="602" width="240" height="72" rx="20" fill="#fff" stroke="#d8b9aa" stroke-width="4"/><circle cx="1170" cy="638" r="18" fill="#b8796a" opacity=".5"/><circle cx="1230" cy="638" r="18" fill="#b8796a" opacity=".28"/></g>
</svg>